<svg class="logo-image" xmlns="http://www.w3.org/2000/svg" viewBox="0 0 150 117" style="fill: #61CDFF;"> <path d="M80.5,53.7c12.8,0,23.2,10.3,23.2,23.1S93.3,99.9,80.5,99.9S57.3,89.6,57.3,76.8S67.7,53.7,80.5,53.7zM120.5,55.7c0-30.8-25-55.7-55.7-55.7C48.2,0,33.2,7.3,23,18.8c4.6-0.9,9.3-1.4,14.1-1.4c7.2,0,14.1,1.1,20.6,3c2.4-0.3,4.8-0.5,7.2-0.5c28.3,0,51.2,21.4,51.2,47.8c0,4.9-0.8,9.6-2.3,14.1C118.2,74.1,120.5,65.2,120.5,55.7z M0.2,91.5c-2.7-30.7,19.9-57.7,50.6-60.4c16.6-1.5,32.1,4.5,43.3,15.1c-4.6-0.5-9.4-0.6-14.2-0.2c-7.1,0.6-13.9,2.3-20.3,4.9c-2.4-0.1-4.8-0.1-7.2,0.2C24.2,53.5,3.2,76.9,5.6,103.2c0.4,4.9,1.6,9.5,3.5,13.8C4.2,109.6,1.1,100.9,0.2,91.5z M122.7,102.7c26.5-15.8,35.2-49.9,19.4-76.3c-8.5-14.2-22.5-23.3-37.7-26.1c3.1,3.4,6,7.2,8.5,11.4c3.7,6.1,6.3,12.6,7.9,19.2c1.5,1.9,2.9,3.8,4.1,5.9c14.5,24.2,7.8,54.8-14.9,68.4c-4.2,2.5-8.7,4.3-13.3,5.3C105.7,110.1,114.6,107.6,122.7,102.7z"></path> </svg>